<svg width="11" height="12" viewBox="0 0 11 12" fill="none" xmlns="http://www.w3.org/2000/svg">
<path opacity="0.1" fill-rule="evenodd" clip-rule="evenodd" d="M0.113525 5.72712C0.113525 2.77689 2.50516 0.385254 5.45539 0.385254C8.40562 0.385254 10.7973 2.77689 10.7973 5.72712C10.7973 8.67735 8.40562 11.069 5.45539 11.069C2.50516 11.069 0.113525 8.67735 0.113525 5.72712Z" fill="white"/>
<path fill-rule="evenodd" clip-rule="evenodd" d="M8.30443 5.72322C8.30443 5.91589 8.28482 6.10829 8.24629 6.29584C8.20872 6.47894 8.15308 6.65869 8.08018 6.83053C8.00896 6.99933 7.92062 7.16199 7.81739 7.31369C7.7157 7.46442 7.59856 7.60584 7.46987 7.73475C7.34091 7.86311 7.19901 7.97993 7.04835 8.08205C6.89615 8.18456 6.73326 8.27277 6.56436 8.34432C6.39227 8.41684 6.2121 8.4724 6.02917 8.5099C5.84137 8.54853 5.64826 8.56825 5.45531 8.56825C5.26222 8.56825 5.06912 8.54853 4.88159 8.5099C4.69838 8.4724 4.51822 8.41684 4.34626 8.34432C4.17738 8.27277 4.01432 8.18456 3.86213 8.08205C3.71147 7.97994 3.56957 7.86311 3.44088 7.73475C3.31206 7.60584 3.19492 7.46442 3.09309 7.31369C2.99042 7.16199 2.90193 6.99932 2.83043 6.83053C2.75752 6.65869 2.70174 6.47893 2.66404 6.29584C2.62593 6.10829 2.60645 5.91589 2.60645 5.72322C2.60645 5.5304 2.62592 5.33759 2.66405 5.15045C2.70176 4.96735 2.75753 4.78732 2.83044 4.61576C2.90194 4.44684 2.99043 4.28403 3.0931 4.13233C3.19493 3.98147 3.31207 3.84032 3.44089 3.71126C3.56958 3.5829 3.71148 3.46636 3.86214 3.36439C4.01434 3.26145 4.17739 3.17324 4.34627 3.10156C4.51823 3.02889 4.69838 2.97319 4.8816 2.93597C5.06913 2.89763 5.26223 2.87817 5.45532 2.87817C5.64827 2.87817 5.84137 2.89763 6.02918 2.93597C6.21211 2.9732 6.39227 3.0289 6.56437 3.10156C6.73326 3.17323 6.89616 3.26145 7.04836 3.36439C7.19902 3.46636 7.34093 3.5829 7.46989 3.71126C7.59857 3.84032 7.71572 3.98147 7.8174 4.13233C7.92062 4.28403 8.00896 4.44685 8.08018 4.61576C8.15308 4.78732 8.20872 4.96735 8.24629 5.15045C8.28482 5.33759 8.30443 5.5304 8.30443 5.72322ZM4.4172 3.52567C3.73871 3.8456 3.23232 4.4699 3.07442 5.22228C3.13856 5.22283 4.15246 5.23562 5.32063 4.92568C4.89952 4.17858 4.44962 3.56888 4.4172 3.52567ZM5.52221 5.2998C4.26945 5.67431 3.06733 5.64736 3.02421 5.6457C3.0235 5.67182 3.02225 5.69709 3.02225 5.72322C3.02225 6.34736 3.25806 6.91637 3.64564 7.34661C3.64481 7.34535 4.31064 6.16581 5.62363 5.74183C5.65534 5.73128 5.68763 5.72182 5.71962 5.71266C5.65856 5.57458 5.5919 5.43622 5.52221 5.2998ZM7.06212 3.89978C6.63377 3.52261 6.07132 3.29383 5.4553 3.29383C5.25761 3.29383 5.06577 3.31772 4.882 3.36189C4.91844 3.4108 5.37545 4.0162 5.79155 4.77912C6.7096 4.43545 7.05613 3.90866 7.06212 3.89978ZM5.88547 6.11524C5.88005 6.11703 5.87463 6.11858 5.86933 6.12052C4.43379 6.62025 3.965 7.62734 3.95993 7.63834C4.37298 7.95909 4.89105 8.15261 5.45532 8.15261C5.79225 8.15261 6.1132 8.08411 6.40521 7.96007C6.36918 7.7478 6.22783 7.00376 5.88547 6.11524ZM6.81491 7.73808C7.36122 7.36995 7.74921 6.78539 7.85745 6.10828C7.80737 6.09217 7.12666 5.87698 6.34134 6.00271C6.66047 6.87846 6.79014 7.59166 6.81491 7.73808ZM5.97882 5.14115C6.03529 5.25701 6.08998 5.37493 6.14047 5.49344C6.15842 5.53596 6.17595 5.57763 6.19306 5.6193C7.02888 5.51428 7.85232 5.69098 7.88752 5.69819C7.88196 5.12225 7.67564 4.59366 7.33426 4.17984C7.32966 4.18635 6.93943 4.74939 5.97882 5.14115Z" fill="white"/>
</svg>
