<svg width="12" height="13" viewBox="0 0 12 13" fill="none" xmlns="http://www.w3.org/2000/svg">
<path d="M11.0914 12.4071V11.0717C11.0914 10.3633 10.81 9.68393 10.3091 9.18303C9.80825 8.68214 9.12889 8.40074 8.42051 8.40074H7.75278C7.57569 8.40074 7.40584 8.33039 7.28062 8.20516C7.1554 8.07994 7.08505 7.9101 7.08505 7.733V4.39434C7.08505 4.04015 6.94434 3.70047 6.6939 3.45002C6.44345 3.19957 6.10377 3.05887 5.74958 3.05887C5.39539 3.05887 5.05571 3.19957 4.80526 3.45002C4.55481 3.70047 4.41411 4.04015 4.41411 4.39434V10.4039L2.81155 8.26719C2.68716 8.10133 2.52586 7.96671 2.34042 7.87399C2.15498 7.78127 1.95051 7.733 1.74318 7.733H1.45338C0.875796 7.733 0.407715 8.20108 0.407715 8.77867C0.407715 8.96831 0.45913 9.15461 0.556619 9.31687L2.41091 12.4071M5.74958 1.05567V0.387939V1.05567ZM9.75598 5.06207H10.4237H9.75598ZM1.07545 5.06207H1.74318H1.07545ZM2.63995 1.95244L2.16786 1.48035L2.63995 1.95244ZM8.85921 1.95244L9.3313 1.48035L8.85921 1.95244Z" fill="#4CAF4F"/>
<path d="M11.0914 12.4071V11.0717C11.0914 10.3633 10.81 9.68393 10.3091 9.18303C9.80825 8.68214 9.12889 8.40074 8.42051 8.40074H7.75278C7.57568 8.40074 7.40584 8.33039 7.28062 8.20516C7.1554 8.07994 7.08505 7.9101 7.08505 7.733V4.39434C7.08505 4.04015 6.94434 3.70047 6.6939 3.45002C6.44345 3.19957 6.10377 3.05887 5.74958 3.05887V3.05887C5.39539 3.05887 5.05571 3.19957 4.80526 3.45002C4.55481 3.70047 4.41411 4.04015 4.41411 4.39434V10.4039L2.81155 8.26719C2.68716 8.10133 2.52586 7.96671 2.34042 7.87399C2.15498 7.78127 1.95051 7.733 1.74318 7.733H1.45338C0.875796 7.733 0.407715 8.20108 0.407715 8.77867C0.407715 8.96831 0.45913 9.15461 0.556619 9.31687L2.41091 12.4071M5.74958 1.05567V0.387939M9.75598 5.06207H10.4237M1.07545 5.06207H1.74318M2.63995 1.95244L2.16786 1.48035M8.85921 1.95244L9.3313 1.48035" stroke="#4CAF4F" stroke-width="0.667733" stroke-linecap="round" stroke-linejoin="round"/>
</svg>
