<svg width="11" height="12" viewBox="0 0 11 12" fill="none" xmlns="http://www.w3.org/2000/svg">
<path opacity="0.1" fill-rule="evenodd" clip-rule="evenodd" d="M0.0878906 5.72712C0.0878906 2.77689 2.47952 0.385254 5.42976 0.385254C8.37999 0.385254 10.7716 2.77689 10.7716 5.72712C10.7716 8.67735 8.37999 11.069 5.42976 11.069C2.47952 11.069 0.0878906 8.67735 0.0878906 5.72712Z" fill="white"/>
<path fill-rule="evenodd" clip-rule="evenodd" d="M5.43007 2.87817C4.65632 2.87817 4.55922 2.88156 4.25532 2.89539C3.95202 2.90928 3.74499 2.95729 3.56384 3.02775C3.37646 3.10052 3.21751 3.19786 3.05915 3.35628C2.90067 3.51463 2.80333 3.67359 2.73032 3.86091C2.65969 4.04212 2.61162 4.24921 2.59796 4.55239C2.58437 4.85629 2.58081 4.95345 2.58081 5.7272C2.58081 6.50095 2.58425 6.59775 2.59802 6.90165C2.61197 7.20495 2.65999 7.41198 2.73038 7.59313C2.80321 7.78051 2.90055 7.93946 3.05897 8.09782C3.21727 8.2563 3.37622 8.35388 3.56349 8.42665C3.74476 8.4971 3.95184 8.54512 4.25509 8.55901C4.55898 8.57284 4.65603 8.57622 5.42972 8.57622C6.20352 8.57622 6.30033 8.57284 6.60423 8.55901C6.90753 8.54512 7.1148 8.4971 7.29606 8.42665C7.48339 8.35388 7.6421 8.2563 7.8004 8.09782C7.95888 7.93946 8.05622 7.78051 8.12923 7.59319C8.19926 7.41198 8.24734 7.20489 8.26159 6.90171C8.27524 6.59781 8.2788 6.50095 8.2788 5.7272C8.2788 4.95345 8.27524 4.85635 8.26159 4.55245C8.24734 4.24915 8.19926 4.04212 8.12923 3.86097C8.05622 3.67359 7.95888 3.51463 7.8004 3.35628C7.64192 3.1978 7.48345 3.10046 7.29589 3.02775C7.11426 2.95729 6.90711 2.90928 6.60381 2.89539C6.29991 2.88156 6.20317 2.87817 5.42918 2.87817H5.43007ZM5.17448 3.39158C5.25033 3.39146 5.33497 3.39158 5.43006 3.39158C6.19075 3.39158 6.28091 3.39431 6.5813 3.40797C6.85908 3.42067 7.00984 3.46708 7.11027 3.50608C7.24323 3.55772 7.33802 3.61945 7.43767 3.71916C7.53739 3.81888 7.59912 3.91385 7.65087 4.0468C7.68987 4.14711 7.73634 4.29787 7.74899 4.57565C7.76264 4.87598 7.76561 4.9662 7.76561 5.72654C7.76561 6.48687 7.76264 6.57709 7.74899 6.87742C7.73629 7.1552 7.68987 7.30596 7.65087 7.40627C7.59924 7.53923 7.53739 7.6339 7.43767 7.73356C7.33796 7.83327 7.24329 7.895 7.11027 7.94664C7.00996 7.98581 6.85908 8.03211 6.5813 8.04481C6.28097 8.05846 6.19075 8.06143 5.43006 8.06143C4.66931 8.06143 4.57915 8.05846 4.27882 8.04481C4.00104 8.03199 3.85028 7.98558 3.74979 7.94658C3.61683 7.89494 3.52187 7.83321 3.42215 7.7335C3.32243 7.63378 3.26071 7.53905 3.20895 7.40604C3.16995 7.30573 3.12348 7.15497 3.11084 6.87719C3.09718 6.57685 3.09445 6.48663 3.09445 5.72582C3.09445 4.96502 3.09718 4.87527 3.11084 4.57494C3.12354 4.29716 3.16995 4.1464 3.20895 4.04597C3.26059 3.91301 3.32243 3.81805 3.42215 3.71833C3.52187 3.61862 3.61683 3.55689 3.74979 3.50513C3.85022 3.46596 4.00104 3.41966 4.27882 3.4069C4.54164 3.39503 4.64349 3.39146 5.17448 3.39087V3.39158ZM6.95085 3.86464C6.7621 3.86464 6.60896 4.0176 6.60896 4.20641C6.60896 4.39515 6.7621 4.54829 6.95085 4.54829C7.13959 4.54829 7.29273 4.39515 7.29273 4.20641C7.29273 4.01766 7.13959 3.86464 6.95085 3.86464ZM5.43008 4.2641C4.62208 4.2641 3.96698 4.91919 3.96698 5.72719C3.96698 6.53519 4.62208 7.18999 5.43008 7.18999C6.23807 7.18999 6.89293 6.53519 6.89293 5.72719C6.89293 4.91919 6.23807 4.2641 5.43008 4.2641ZM5.43007 4.77752C5.95452 4.77752 6.37974 5.20267 6.37974 5.72719C6.37974 6.25165 5.95452 6.67686 5.43007 6.67686C4.90555 6.67686 4.48039 6.25165 4.48039 5.72719C4.48039 5.20267 4.90555 4.77752 5.43007 4.77752Z" fill="white"/>
</svg>
