<svg width="17" height="17" viewBox="0 0 17 17" fill="none" xmlns="http://www.w3.org/2000/svg">
<path d="M4.14404 3.05579H13.6587C14.1429 3.05579 14.6097 3.22429 14.981 3.52844L15.1343 3.66711C15.5256 4.05844 15.7456 4.5893 15.7456 5.1427V11.6525C15.7456 12.1369 15.5774 12.6043 15.2729 12.9757L15.1343 13.1281C14.743 13.5194 14.2121 13.7394 13.6587 13.7394H4.14404C3.65989 13.7394 3.19306 13.5709 2.82178 13.2667L2.66846 13.1281C2.27714 12.7367 2.05713 12.2059 2.05713 11.6525V5.1427C2.05713 4.65855 2.22566 4.19171 2.52979 3.82043L2.66846 3.66711C3.01076 3.32481 3.45949 3.11307 3.93701 3.06555L4.14404 3.05579ZM2.7251 11.6525C2.7251 12.0288 2.87404 12.3903 3.14014 12.6564C3.40624 12.9225 3.76772 13.0714 4.14404 13.0714H13.6587C14.035 13.0714 14.3965 12.9225 14.6626 12.6564C14.9287 12.3903 15.0776 12.0288 15.0776 11.6525V6.72864H2.7251V11.6525ZM11.4058 10.0665H12.9077C12.9742 10.0665 13.0388 10.0867 13.0933 10.1232L13.144 10.1652C13.2064 10.2277 13.2416 10.3122 13.2417 10.4005C13.2417 10.467 13.2215 10.5316 13.1851 10.5861L13.144 10.6368C13.0814 10.6995 12.9963 10.7345 12.9077 10.7345H11.4058C11.3394 10.7345 11.2746 10.7151 11.2202 10.6788L11.1694 10.6368C11.1068 10.5742 11.0718 10.4891 11.0718 10.4005C11.0718 10.3343 11.0913 10.2702 11.1274 10.2159L11.1694 10.1652C11.232 10.1025 11.3172 10.0665 11.4058 10.0665ZM4.14404 3.72375C3.76772 3.72375 3.40624 3.87269 3.14014 4.13879C2.87404 4.4049 2.7251 4.76638 2.7251 5.1427V6.06067H15.0776V5.1427C15.0776 4.76639 14.9287 4.40489 14.6626 4.13879C14.3965 3.87269 14.035 3.72375 13.6587 3.72375H4.14404Z" fill="#4CAF4F" stroke="#4CAF4F" stroke-width="0.333867"/>
</svg>
