<svg width="17" height="17" viewBox="0 0 17 17" fill="none" xmlns="http://www.w3.org/2000/svg">
<g clip-path="url(#clip0_212_1407)">
<path d="M11.3467 2.95178H11.3477C12.0371 2.94978 12.7127 3.13315 13.3037 3.48108L13.5518 3.64026C14.1173 4.03469 14.5647 4.57348 14.8486 5.19788L14.96 5.47034C15.2301 6.21059 15.2656 7.01685 15.0615 7.77795C14.8574 8.53892 14.4235 9.21854 13.8193 9.72424L13.6152 9.89514L13.8574 10.0045C14.726 10.3976 15.4889 10.9877 16.0859 11.7262L16.3311 12.0514L16.332 12.0524C16.3766 12.1147 16.4087 12.1857 16.4258 12.2604C16.4343 12.2976 16.4385 12.3356 16.4395 12.3737L16.4316 12.4879C16.4251 12.5258 16.4143 12.5626 16.4004 12.5983L16.3496 12.6998C16.329 12.7321 16.3048 12.7622 16.2783 12.7897L16.1914 12.8639L16.1895 12.8649C16.0921 12.9345 15.9752 12.9716 15.8555 12.9713L15.7852 12.9674C15.739 12.9616 15.6939 12.9497 15.6504 12.9332L15.5859 12.9049C15.503 12.8617 15.4311 12.7996 15.377 12.7233H15.3779C14.9796 12.1581 14.4675 11.6834 13.876 11.3297L13.6172 11.1862C13.0037 10.8676 12.3313 10.6814 11.6436 10.6393L11.3477 10.6305L11.2324 10.6188C11.1577 10.6038 11.0868 10.5741 11.0234 10.5319L10.9346 10.4596C10.8251 10.3501 10.7628 10.2014 10.7627 10.0465C10.7627 9.93033 10.7978 9.81755 10.8613 9.72229L10.9346 9.63342C11.0441 9.52387 11.1927 9.46155 11.3477 9.46155C11.9674 9.46147 12.5648 9.24641 13.04 8.85706L13.2363 8.67932C13.737 8.17846 14.0186 7.49886 14.0186 6.79065C14.0185 6.17088 13.8025 5.57348 13.4131 5.09827L13.2363 4.90198C12.7981 4.46371 12.2227 4.19414 11.6113 4.13342L11.3477 4.11975C11.1644 4.11941 10.9817 4.13861 10.8027 4.17639L10.625 4.22034L10.623 4.22131C10.549 4.24332 10.4713 4.25002 10.3945 4.24182C10.3561 4.2377 10.318 4.22993 10.2812 4.21838L10.1748 4.17249C10.107 4.13511 10.0472 4.08472 9.99902 4.02405C9.97505 3.99383 9.95402 3.96153 9.93652 3.92737L9.89453 3.81897C9.87359 3.74443 9.86751 3.66632 9.87695 3.58948C9.88168 3.55118 9.89025 3.51362 9.90234 3.47717L9.94922 3.3717C9.96849 3.33797 9.99117 3.3061 10.0166 3.27698L10.1006 3.19788C10.1312 3.17433 10.1637 3.15334 10.1982 3.13635L10.3066 3.09631L10.3096 3.09534C10.5627 3.02328 10.8229 2.97842 11.085 2.96057L11.3467 2.95178ZM6.24512 2.9469C6.93423 2.9469 7.60908 3.13222 8.19922 3.48108L8.44629 3.64026C9.01078 4.03526 9.45769 4.57388 9.74121 5.19788L9.85254 5.47131C10.0885 6.11846 10.1449 6.81523 10.0195 7.48889L9.95508 7.77698C9.75193 8.5377 9.31933 9.21736 8.7168 9.72424L8.51465 9.89514L8.75586 10.0045C9.62445 10.3976 10.3873 10.9877 10.9844 11.7262L11.2295 12.0514L11.2344 12.0582C11.2587 12.0894 11.2804 12.1226 11.2979 12.1578L11.3389 12.2692C11.3489 12.3073 11.3553 12.3462 11.3574 12.3854L11.3516 12.5035C11.3458 12.5425 11.3367 12.5809 11.3232 12.6178L11.2715 12.7242C11.23 12.7916 11.175 12.8496 11.1104 12.8951C11.0781 12.9179 11.0438 12.938 11.0078 12.9537L10.8945 12.9889C10.8559 12.9971 10.8167 13.0014 10.7773 13.0016L10.6602 12.9908C10.6213 12.9831 10.5832 12.971 10.5469 12.9557L10.4434 12.899C10.4108 12.8767 10.3808 12.8512 10.3535 12.8229L10.2803 12.7301L10.2754 12.7233L10.0986 12.4869C9.73039 12.0242 9.28186 11.6315 8.77441 11.3278L8.5166 11.1832C7.81512 10.8186 7.03569 10.6285 6.24512 10.6285C5.55351 10.6286 4.87093 10.7747 4.24121 11.0553L3.97461 11.1832C3.36073 11.5023 2.82203 11.9473 2.39258 12.4869L2.21484 12.7233V12.7242C2.16145 12.8009 2.0897 12.8637 2.00684 12.9069C1.94484 12.9391 1.87758 12.9592 1.80859 12.9674L1.73828 12.9713H1.7373C1.64735 12.9715 1.55916 12.9507 1.47949 12.9108L1.40332 12.8649H1.40234C1.30762 12.798 1.23559 12.7048 1.19434 12.5983L1.16406 12.4869C1.14428 12.3728 1.15908 12.2565 1.20508 12.152L1.26172 12.0514C1.88864 11.1604 2.74279 10.4537 3.73535 10.0045L3.97656 9.89514L3.77344 9.72424C3.24638 9.28077 2.85006 8.70477 2.62305 8.05823L2.53613 7.77698C2.35846 7.11137 2.36316 6.41157 2.54785 5.75159L2.63867 5.47131C2.87479 4.82385 3.27957 4.25291 3.80957 3.81799L4.04395 3.64026C4.68911 3.18881 5.4577 2.94696 6.24512 2.9469ZM6.7666 4.17151C6.31318 4.08132 5.8451 4.11031 5.4082 4.25452L5.22363 4.32385C4.79662 4.50073 4.42375 4.7846 4.14062 5.14709L4.02441 5.30725C3.73107 5.74634 3.57429 6.26259 3.57422 6.79065C3.57422 7.41062 3.79009 8.00867 4.17969 8.48401L4.35645 8.67932C4.85727 9.18015 5.53685 9.46147 6.24512 9.46155C6.7074 9.46155 7.16117 9.34249 7.56152 9.11584L7.72949 9.01135C8.11366 8.75458 8.42396 8.40348 8.63086 7.9928L8.71289 7.81311C8.88972 7.38622 8.95253 6.92186 8.89648 6.46545L8.86523 6.27014C8.77508 5.8169 8.56878 5.39585 8.26855 5.04749L8.13379 4.90198C7.76033 4.52865 7.28451 4.27455 6.7666 4.17151Z" fill="#4CAF4F" stroke="#4CAF4F" stroke-width="0.333867"/>
</g>
<defs>
<clipPath id="clip0_212_1407">
<rect width="16.0256" height="16.0256" fill="white" transform="translate(0.736816 0.0301514)"/>
</clipPath>
</defs>
</svg>
