<svg width="12" height="11" viewBox="0 0 12 11" fill="none" xmlns="http://www.w3.org/2000/svg">
<mask id="path-1-inside-1_212_1414" fill="white">
<path d="M7.34062 4.92429C7.26023 4.92429 7.18558 4.90219 7.11928 4.86663V4.86758C7.11928 4.99406 7.07012 5.11284 6.98092 5.2018C6.89172 5.291 6.77303 5.34016 6.64669 5.34016C6.56512 5.34016 6.48953 5.31751 6.42251 5.28101C6.41575 5.39672 6.3695 5.50487 6.28698 5.58747C6.19778 5.67667 6.07909 5.72583 5.95268 5.72583C5.70151 5.72583 5.49755 5.5284 5.48285 5.28093C5.40514 5.32294 5.31728 5.34496 5.22666 5.33914C4.97958 5.32294 4.78609 5.10946 4.78609 4.85302V2.72741L4.54405 3.14674C4.45186 3.30712 4.27929 3.4067 4.09349 3.4067C4.00296 3.4067 3.91352 3.38295 3.83432 3.33756C3.73568 3.28038 3.66512 3.18858 3.63578 3.07877C3.60629 2.96888 3.62154 2.85396 3.67857 2.75547C3.67865 2.75547 4.4705 1.38422 4.51881 1.29999C4.52455 1.28732 4.54091 1.25059 4.55483 1.21928C4.56813 1.18939 4.57953 1.15872 4.59047 1.12788C4.82927 0.453711 5.42055 0.0349312 6.13367 0.0349312C7.05971 0.0349312 7.81309 0.85187 7.81309 1.85604L7.81317 4.45163C7.81317 4.57796 7.76409 4.69666 7.67497 4.78594C7.58577 4.87514 7.46708 4.9243 7.3406 4.9243L7.34062 4.92429ZM6.13368 0.286047C5.52092 0.286047 5.03253 0.632153 4.82716 1.21186C4.81402 1.24867 4.80034 1.28549 4.78437 1.32136C4.73804 1.42526 4.73804 1.42526 4.72498 1.44021L4.72325 1.43871C4.6586 1.56071 4.46651 1.89335 3.896 2.88115C3.87256 2.92166 3.86635 2.9687 3.87831 3.01369C3.89042 3.05868 3.91944 3.0966 3.95964 3.1198C4.08439 3.19146 4.25524 3.14521 4.32634 3.02132L4.80294 2.19619C4.83141 2.14702 4.88899 2.12288 4.94421 2.13782C4.99911 2.15253 5.03726 2.20232 5.03726 2.25911V4.8531C5.03726 4.97549 5.1296 5.08112 5.24311 5.08859C5.30856 5.09206 5.3696 5.07011 5.41545 5.02433C5.45714 4.98264 5.48011 4.92711 5.48011 4.86772V3.17122C5.48011 3.10185 5.53635 3.0456 5.60573 3.0456C5.6751 3.0456 5.73135 3.10177 5.73135 3.17122L5.73127 5.25334C5.73127 5.37541 5.83061 5.47476 5.95269 5.47476C6.012 5.47476 6.06769 5.45179 6.10946 5.4101C6.15114 5.36833 6.17411 5.31265 6.17411 5.25334V3.17122C6.17411 3.10184 6.23027 3.0456 6.29973 3.0456C6.36911 3.0456 6.42535 3.10176 6.42535 3.17122L6.42527 4.84821V4.86772C6.42527 4.98972 6.52461 5.08906 6.64677 5.08906C6.706 5.08906 6.76153 5.06601 6.80354 5.02416C6.84522 4.98255 6.86819 4.92702 6.86819 4.86763V3.17113C6.86819 3.10176 6.92436 3.04551 6.99381 3.04551C7.06319 3.04551 7.11943 3.10168 7.11943 3.17113L7.11927 4.45169C7.11927 4.57385 7.21862 4.67319 7.34061 4.67319C7.4 4.67319 7.45553 4.65015 7.49722 4.60854C7.53906 4.56669 7.56195 4.511 7.56195 4.45169L7.56203 1.8561C7.56203 0.990469 6.92129 0.286072 6.13367 0.286072L6.13368 0.286047Z"/>
</mask>
<path d="M7.34062 4.92429C7.26023 4.92429 7.18558 4.90219 7.11928 4.86663V4.86758C7.11928 4.99406 7.07012 5.11284 6.98092 5.2018C6.89172 5.291 6.77303 5.34016 6.64669 5.34016C6.56512 5.34016 6.48953 5.31751 6.42251 5.28101C6.41575 5.39672 6.3695 5.50487 6.28698 5.58747C6.19778 5.67667 6.07909 5.72583 5.95268 5.72583C5.70151 5.72583 5.49755 5.5284 5.48285 5.28093C5.40514 5.32294 5.31728 5.34496 5.22666 5.33914C4.97958 5.32294 4.78609 5.10946 4.78609 4.85302V2.72741L4.54405 3.14674C4.45186 3.30712 4.27929 3.4067 4.09349 3.4067C4.00296 3.4067 3.91352 3.38295 3.83432 3.33756C3.73568 3.28038 3.66512 3.18858 3.63578 3.07877C3.60629 2.96888 3.62154 2.85396 3.67857 2.75547C3.67865 2.75547 4.4705 1.38422 4.51881 1.29999C4.52455 1.28732 4.54091 1.25059 4.55483 1.21928C4.56813 1.18939 4.57953 1.15872 4.59047 1.12788C4.82927 0.453711 5.42055 0.0349312 6.13367 0.0349312C7.05971 0.0349312 7.81309 0.85187 7.81309 1.85604L7.81317 4.45163C7.81317 4.57796 7.76409 4.69666 7.67497 4.78594C7.58577 4.87514 7.46708 4.9243 7.3406 4.9243L7.34062 4.92429ZM6.13368 0.286047C5.52092 0.286047 5.03253 0.632153 4.82716 1.21186C4.81402 1.24867 4.80034 1.28549 4.78437 1.32136C4.73804 1.42526 4.73804 1.42526 4.72498 1.44021L4.72325 1.43871C4.6586 1.56071 4.46651 1.89335 3.896 2.88115C3.87256 2.92166 3.86635 2.9687 3.87831 3.01369C3.89042 3.05868 3.91944 3.0966 3.95964 3.1198C4.08439 3.19146 4.25524 3.14521 4.32634 3.02132L4.80294 2.19619C4.83141 2.14702 4.88899 2.12288 4.94421 2.13782C4.99911 2.15253 5.03726 2.20232 5.03726 2.25911V4.8531C5.03726 4.97549 5.1296 5.08112 5.24311 5.08859C5.30856 5.09206 5.3696 5.07011 5.41545 5.02433C5.45714 4.98264 5.48011 4.92711 5.48011 4.86772V3.17122C5.48011 3.10185 5.53635 3.0456 5.60573 3.0456C5.6751 3.0456 5.73135 3.10177 5.73135 3.17122L5.73127 5.25334C5.73127 5.37541 5.83061 5.47476 5.95269 5.47476C6.012 5.47476 6.06769 5.45179 6.10946 5.4101C6.15114 5.36833 6.17411 5.31265 6.17411 5.25334V3.17122C6.17411 3.10184 6.23027 3.0456 6.29973 3.0456C6.36911 3.0456 6.42535 3.10176 6.42535 3.17122L6.42527 4.84821V4.86772C6.42527 4.98972 6.52461 5.08906 6.64677 5.08906C6.706 5.08906 6.76153 5.06601 6.80354 5.02416C6.84522 4.98255 6.86819 4.92702 6.86819 4.86763V3.17113C6.86819 3.10176 6.92436 3.04551 6.99381 3.04551C7.06319 3.04551 7.11943 3.10168 7.11943 3.17113L7.11927 4.45169C7.11927 4.57385 7.21862 4.67319 7.34061 4.67319C7.4 4.67319 7.45553 4.65015 7.49722 4.60854C7.53906 4.56669 7.56195 4.511 7.56195 4.45169L7.56203 1.8561C7.56203 0.990469 6.92129 0.286072 6.13367 0.286072L6.13368 0.286047Z" fill="#4CAF4F"/>
<path d="M7.34062 4.92429V4.47914H8.91337L7.57392 5.30341L7.34062 4.92429ZM7.11928 4.86663H6.67412V4.12283L7.32964 4.47432L7.11928 4.86663ZM6.98092 5.2018L6.66615 4.88703L6.66656 4.88662L6.98092 5.2018ZM6.42251 5.28101L5.97812 5.25503L6.01908 4.55443L6.63541 4.89007L6.42251 5.28101ZM6.28698 5.58747L6.60192 5.90208L6.60176 5.90224L6.28698 5.58747ZM5.48285 5.28093L5.27119 4.88932L5.8858 4.55714L5.92722 5.25454L5.48285 5.28093ZM5.22666 5.33914L5.19812 5.78338L5.19752 5.78334L5.22666 5.33914ZM4.78609 2.72741L4.40055 2.50488L5.23124 1.06574V2.72741H4.78609ZM4.54405 3.14674L4.1581 2.9249L4.15851 2.9242L4.54405 3.14674ZM3.83432 3.33756L3.613 3.72381L3.61105 3.72268L3.83432 3.33756ZM3.63578 3.07877L4.06572 2.96336L4.06585 2.96386L3.63578 3.07877ZM3.67857 2.75547L3.29334 2.53241L3.42193 2.31032H3.67857V2.75547ZM4.51881 1.29999L4.92423 1.48381L4.91549 1.50309L4.90496 1.52145L4.51881 1.29999ZM4.55483 1.21928L4.14809 1.0384L4.14809 1.03839L4.55483 1.21928ZM4.59047 1.12788L5.01008 1.27651L5.01003 1.27663L4.59047 1.12788ZM7.81309 1.85604L7.36794 1.85605V1.85604H7.81309ZM7.81317 4.45163L8.25833 4.45162V4.45163H7.81317ZM7.67497 4.78594L7.99003 5.10042L7.98974 5.10071L7.67497 4.78594ZM7.3406 4.9243V5.36946H5.76785L7.1073 4.54518L7.3406 4.9243ZM6.13368 0.286047V-0.159109H6.72383L6.5617 0.40834L6.13368 0.286047ZM4.82716 1.21186L5.24676 1.36051L5.24642 1.36147L4.82716 1.21186ZM4.78437 1.32136L5.19105 1.5024L5.19094 1.50264L4.78437 1.32136ZM4.72498 1.44021L5.06021 1.7331L4.76899 2.0664L4.43402 1.77711L4.72498 1.44021ZM4.72325 1.43871L4.32992 1.23026L4.59148 0.736721L5.01421 1.10181L4.72325 1.43871ZM3.896 2.88115L4.28149 3.10379L4.2813 3.10411L3.896 2.88115ZM3.87831 3.01369L3.44845 3.12942L3.44808 3.12803L3.87831 3.01369ZM3.95964 3.1198L3.73791 3.50581L3.73708 3.50533L3.95964 3.1198ZM4.32634 3.02132L3.94026 2.79973L3.94087 2.79867L4.32634 3.02132ZM4.80294 2.19619L4.41746 1.97354L4.41773 1.97307L4.80294 2.19619ZM4.94421 2.13782L4.82901 2.56782L4.82791 2.56752L4.94421 2.13782ZM5.24311 5.08859L5.2196 5.53317L5.21388 5.53279L5.24311 5.08859ZM5.41545 5.02433L5.73023 5.3391L5.72995 5.33938L5.41545 5.02433ZM5.73135 3.17122H6.1765V3.17124L5.73135 3.17122ZM5.73127 5.25334H5.28611V5.25332L5.73127 5.25334ZM6.10946 5.4101L6.42452 5.72458L6.42392 5.72518L6.10946 5.4101ZM6.42535 3.17122H6.8705V3.17124L6.42535 3.17122ZM6.42527 4.84821H5.98011V4.84819L6.42527 4.84821ZM6.80354 5.02416L7.11801 5.33923L7.11772 5.33952L6.80354 5.02416ZM7.11943 3.17113H7.56458V3.17119L7.11943 3.17113ZM7.11927 4.45169H6.67411L6.67411 4.45164L7.11927 4.45169ZM7.49722 4.60854L7.81199 4.92331L7.81169 4.92361L7.49722 4.60854ZM7.56195 4.45169H7.1168V4.45168L7.56195 4.45169ZM7.56203 1.8561H8.00719V1.85611L7.56203 1.8561ZM6.13367 0.286072V0.731228H5.54351L5.70564 0.163779L6.13367 0.286072ZM7.34062 5.36945C7.1767 5.36945 7.03036 5.32407 6.90892 5.25895L7.32964 4.47432C7.33539 4.4774 7.33904 4.47858 7.34049 4.47897C7.34174 4.47931 7.34157 4.47914 7.34062 4.47914V5.36945ZM7.56443 4.86663V4.86758H6.67412V4.86663H7.56443ZM7.56443 4.86758C7.56443 5.11175 7.46861 5.34411 7.29527 5.51699L6.66656 4.88662C6.66974 4.88344 6.67132 4.88072 6.67224 4.8785C6.67316 4.87627 6.67412 4.87284 6.67412 4.86758H7.56443ZM7.29569 5.51658C7.12294 5.68933 6.89099 5.78532 6.64669 5.78532V4.89501C6.6518 4.89501 6.65516 4.89408 6.65744 4.89314C6.65972 4.89219 6.66267 4.89051 6.66615 4.88703L7.29569 5.51658ZM6.64669 5.78532C6.48064 5.78532 6.33247 5.73886 6.20961 5.67196L6.63541 4.89007C6.64121 4.89322 6.64488 4.89442 6.64634 4.89482C6.64759 4.89516 6.64749 4.89501 6.64669 4.89501V5.78532ZM6.86691 5.30699C6.8541 5.5261 6.76521 5.73861 6.60192 5.90208L5.97205 5.27286C5.9737 5.27121 5.97466 5.26975 5.97546 5.26791C5.97634 5.26591 5.97772 5.26183 5.97812 5.25503L6.86691 5.30699ZM6.60176 5.90224C6.42897 6.07502 6.19702 6.17099 5.95268 6.17099V5.28067C5.95786 5.28067 5.96125 5.27973 5.96352 5.27879C5.9658 5.27785 5.96874 5.27617 5.97221 5.2727L6.60176 5.90224ZM5.95268 6.17099C5.46123 6.17099 5.06687 5.78527 5.03848 5.30733L5.92722 5.25454C5.92767 5.26211 5.93077 5.26875 5.93625 5.27398C5.93893 5.27653 5.94164 5.27817 5.94399 5.27913C5.94607 5.27998 5.9487 5.28067 5.95268 5.28067V6.17099ZM5.69451 5.67255C5.55072 5.75027 5.38024 5.79508 5.19812 5.78338L5.25519 4.8949C5.2552 4.8949 5.25615 4.89499 5.2585 4.89445C5.26101 4.89386 5.26536 4.89247 5.27119 4.88932L5.69451 5.67255ZM5.19752 5.78334C4.70325 5.75093 4.34093 5.33059 4.34093 4.85302H5.23124C5.23124 4.86808 5.23671 4.87967 5.24356 4.88723C5.25023 4.89459 5.25477 4.89487 5.25579 4.89494L5.19752 5.78334ZM4.34093 4.85302V2.72741H5.23124V4.85302H4.34093ZM5.17163 2.94995L4.92959 3.36928L4.15851 2.9242L4.40055 2.50488L5.17163 2.94995ZM4.92999 3.36857C4.75798 3.66783 4.4378 3.85186 4.09349 3.85186V2.96154C4.12079 2.96154 4.14574 2.94641 4.1581 2.9249L4.92999 3.36857ZM4.09349 3.85186C3.92515 3.85186 3.75944 3.80771 3.613 3.7238L4.05563 2.95132C4.0676 2.95818 4.08076 2.96154 4.09349 2.96154V3.85186ZM3.61105 3.72268C3.41119 3.60681 3.26572 3.41825 3.20571 3.19367L4.06585 2.96386C4.06545 2.96234 4.06434 2.95965 4.06219 2.95686C4.06006 2.95409 4.0581 2.95274 4.05758 2.95244L3.61105 3.72268ZM3.20585 3.19417C3.14561 2.96976 3.17715 2.73308 3.29334 2.53241L4.06381 2.97854C4.06444 2.97744 4.06555 2.9749 4.06603 2.9713C4.06651 2.9677 4.06611 2.96482 4.06572 2.96336L3.20585 3.19417ZM3.67857 2.31032C3.46021 2.36756 3.29676 2.5266 3.29554 2.52865C3.29513 2.52934 3.29453 2.53037 3.29433 2.5307C3.29422 2.53089 3.29403 2.53121 3.29397 2.53132C3.29393 2.53139 3.29385 2.53153 3.29383 2.53156C3.29377 2.53167 3.29379 2.53164 3.29395 2.53135C3.29426 2.53083 3.29476 2.52995 3.2955 2.52867C3.29696 2.52614 3.29916 2.52234 3.30206 2.51732C3.30786 2.50729 3.31638 2.49255 3.32725 2.47372C3.34899 2.43608 3.38011 2.38221 3.41761 2.31727C3.4926 2.18742 3.59309 2.01339 3.69509 1.83673C3.89943 1.48282 4.10892 1.11989 4.13265 1.07852L4.90496 1.52145C4.88039 1.56431 4.6698 1.92913 4.46612 2.2819C4.3641 2.45858 4.2636 2.63264 4.18859 2.76252C4.15108 2.82746 4.11995 2.88137 4.09818 2.91905C4.0873 2.93789 4.07875 2.95269 4.07292 2.96278C4.07 2.96783 4.06774 2.97174 4.0662 2.9744C4.06544 2.97572 4.06481 2.97681 4.06435 2.97761C4.06413 2.97798 4.06386 2.97844 4.06361 2.97888C4.06351 2.97905 4.06323 2.97954 4.06288 2.98012C4.06267 2.98049 4.06204 2.98156 4.06162 2.98226C4.06039 2.98434 3.89694 3.14339 3.67857 3.20063V2.31032ZM4.11338 1.11616C4.11828 1.10535 4.13381 1.07051 4.14809 1.0384L4.96158 1.40017C4.94802 1.43067 4.93082 1.46929 4.92423 1.48381L4.11338 1.11616ZM4.14809 1.03839C4.15428 1.02448 4.16112 1.0067 4.1709 0.97913L5.01003 1.27663C4.99794 1.31073 4.98198 1.35431 4.96158 1.40018L4.14809 1.03839ZM4.17086 0.979251C4.47236 0.128065 5.23124 -0.410224 6.13367 -0.410224V0.480087C5.60987 0.480087 5.18617 0.779357 5.01008 1.27651L4.17086 0.979251ZM6.13367 -0.410224C7.33882 -0.410224 8.25825 0.640649 8.25825 1.85604H7.36794C7.36794 1.06309 6.7806 0.480087 6.13367 0.480087V-0.410224ZM8.25825 1.85602L8.25833 4.45162L7.36802 4.45165L7.36794 1.85605L8.25825 1.85602ZM8.25833 4.45163C8.25833 4.69575 8.16255 4.92758 7.99003 5.10042L7.35991 4.47146C7.36342 4.46793 7.36514 4.46494 7.36611 4.4626C7.36707 4.46026 7.36802 4.45682 7.36802 4.45163H8.25833ZM7.98974 5.10071C7.81694 5.27352 7.58497 5.36946 7.3406 5.36946V4.47914C7.34584 4.47914 7.34925 4.47819 7.35152 4.47725C7.35379 4.47631 7.35672 4.47464 7.3602 4.47117L7.98974 5.10071ZM7.1073 4.54518L7.10731 4.54517L7.57392 5.30341L7.57391 5.30342L7.1073 4.54518ZM6.13368 0.731202C5.71043 0.731202 5.3895 0.957614 5.24676 1.36051L4.40756 1.06321C4.67557 0.306692 5.33141 -0.159109 6.13368 -0.159109V0.731202ZM5.24642 1.36147C5.23237 1.40085 5.21411 1.45058 5.19105 1.5024L4.37769 1.14031C4.38656 1.12039 4.39568 1.0965 4.4079 1.06225L5.24642 1.36147ZM5.19094 1.50264C5.17056 1.54836 5.15348 1.58697 5.14041 1.61312C5.1323 1.62935 5.11917 1.65437 5.10012 1.68208C5.08083 1.71015 5.06176 1.73133 5.06021 1.7331L4.38976 1.14731C4.3908 1.14611 4.39046 1.1465 4.38993 1.14711C4.38925 1.1479 4.38753 1.14992 4.38525 1.15269C4.38018 1.15887 4.37355 1.16739 4.36639 1.17781C4.35246 1.19807 4.34468 1.21379 4.34399 1.21517C4.34348 1.21618 4.3438 1.21558 4.34531 1.21234C4.34678 1.2092 4.34885 1.20469 4.35183 1.19811C4.35791 1.18467 4.366 1.16654 4.3778 1.14008L5.19094 1.50264ZM4.43402 1.77711L4.43229 1.77562L5.01421 1.10181L5.01594 1.1033L4.43402 1.77711ZM5.11658 1.64717C5.04691 1.77863 4.84801 2.12288 4.28149 3.10379L3.51052 2.65851C4.08501 1.66383 4.27028 1.3428 4.32992 1.23026L5.11658 1.64717ZM4.2813 3.10411C4.31692 3.04255 4.32685 2.96829 4.30853 2.89935L3.44808 3.12803C3.40585 2.96911 3.42821 2.80077 3.51071 2.65819L4.2813 3.10411ZM4.30815 2.89796C4.28984 2.82992 4.24481 2.77042 4.18219 2.73427L3.73708 3.50533C3.59407 3.42277 3.491 3.28744 3.44846 3.12942L4.30815 2.89796ZM4.18136 2.73379C4.13069 2.70469 4.08141 2.70488 4.04738 2.71404C4.01348 2.72317 3.97001 2.74789 3.94026 2.79973L4.71243 3.24291C4.51842 3.58094 4.07504 3.69945 3.73791 3.50581L4.18136 2.73379ZM3.94087 2.79867L4.41746 1.97354L5.18841 2.41883L4.71182 3.24397L3.94087 2.79867ZM4.41773 1.97307C4.54631 1.75108 4.80876 1.63999 5.06051 1.70813L4.82791 2.56752C4.96922 2.60576 5.11651 2.54297 5.18814 2.4193L4.41773 1.97307ZM5.0594 1.70783C5.30914 1.77474 5.48241 2.00105 5.48241 2.25911H4.5921C4.5921 2.40359 4.68908 2.53033 4.82901 2.56781L5.0594 1.70783ZM5.48241 2.25911V4.8531H4.5921V2.25911H5.48241ZM5.48241 4.8531C5.48241 4.80237 5.46362 4.75626 5.43277 4.72097C5.40197 4.68573 5.34762 4.64935 5.27235 4.6444L5.21388 5.53279C4.83914 5.50813 4.5921 5.18169 4.5921 4.8531H5.48241ZM5.26662 4.64406C5.21403 4.64128 5.14978 4.66054 5.10096 4.70928L5.72995 5.33938C5.58941 5.47968 5.40308 5.54283 5.2196 5.53313L5.26662 4.64406ZM5.10068 4.70956C5.05844 4.7518 5.03496 4.80969 5.03496 4.86772H5.92527C5.92527 5.04453 5.85585 5.21348 5.73023 5.3391L5.10068 4.70956ZM5.03496 4.86772V3.17122H5.92527V4.86772H5.03496ZM5.03496 3.17122C5.03496 2.85599 5.2905 2.60045 5.60573 2.60045V3.49076C5.7822 3.49076 5.92527 3.3477 5.92527 3.17122H5.03496ZM5.60573 2.60045C5.92078 2.60045 6.1765 2.85574 6.1765 3.17122H5.28619C5.28619 3.3478 5.42943 3.49076 5.60573 3.49076V2.60045ZM6.1765 3.17124L6.17642 5.25335L5.28611 5.25332L5.28619 3.1712L6.1765 3.17124ZM6.17642 5.25334C6.17642 5.12956 6.07646 5.0296 5.95269 5.0296V5.91991C5.58476 5.91991 5.28611 5.62127 5.28611 5.25334H6.17642ZM5.95269 5.0296C5.89475 5.0296 5.83715 5.05295 5.79499 5.09503L6.42392 5.72518C6.29823 5.85063 6.12924 5.91991 5.95269 5.91991V5.0296ZM5.79439 5.09563C5.7523 5.13779 5.72896 5.1954 5.72896 5.25334H6.61927C6.61927 5.42989 6.54999 5.59888 6.42452 5.72458L5.79439 5.09563ZM5.72896 5.25334V3.17122H6.61927V5.25334H5.72896ZM5.72896 3.17122C5.72896 2.85618 5.98424 2.60045 6.29973 2.60045V3.49076C6.47631 3.49076 6.61927 3.34751 6.61927 3.17122H5.72896ZM6.29973 2.60045C6.61478 2.60045 6.8705 2.85573 6.8705 3.17122H5.98019C5.98019 3.3478 6.12343 3.49076 6.29973 3.49076V2.60045ZM6.8705 3.17124L6.87042 4.84823L5.98011 4.84819L5.98019 3.1712L6.8705 3.17124ZM6.87042 4.84821V4.86772H5.98011V4.84821H6.87042ZM6.87042 4.86772C6.87042 4.74365 6.77025 4.6439 6.64677 4.6439V5.53421C6.27898 5.53421 5.98011 5.23579 5.98011 4.86772H6.87042ZM6.64677 4.6439C6.58762 4.6439 6.53035 4.66796 6.48935 4.7088L7.11772 5.33952C6.99271 5.46406 6.82438 5.53421 6.64677 5.53421V4.6439ZM6.48906 4.70909C6.44648 4.7516 6.42304 4.80967 6.42304 4.86763H7.31335C7.31335 5.04437 7.24397 5.21351 7.11801 5.33923L6.48906 4.70909ZM6.42304 4.86763V3.17113H7.31335V4.86763H6.42304ZM6.42304 3.17113C6.42304 2.85608 6.67832 2.60036 6.99381 2.60036V3.49067C7.17039 3.49067 7.31335 3.34743 7.31335 3.17113H6.42304ZM6.99381 2.60036C7.30886 2.60036 7.56458 2.85564 7.56458 3.17113H6.67427C6.67427 3.34771 6.81752 3.49067 6.99381 3.49067V2.60036ZM7.56458 3.17119L7.56443 4.45175L6.67411 4.45164L6.67427 3.17108L7.56458 3.17119ZM7.56443 4.45169C7.56443 4.32821 7.46468 4.22804 7.34061 4.22804V5.11835C6.97255 5.11835 6.67411 4.81949 6.67411 4.45169H7.56443ZM7.34061 4.22804C7.28222 4.22804 7.22461 4.25168 7.18274 4.29347L7.81169 4.92361C7.68645 5.04862 7.51778 5.11835 7.34061 5.11835V4.22804ZM7.18245 4.29377C7.14006 4.33616 7.1168 4.39401 7.1168 4.45169H8.00711C8.00711 4.628 7.93807 4.79723 7.81199 4.92331L7.18245 4.29377ZM7.1168 4.45168L7.11688 1.85608L8.00719 1.85611L8.00711 4.45171L7.1168 4.45168ZM7.11688 1.8561C7.11688 1.19575 6.63674 0.731228 6.13367 0.731228V-0.159083C7.20584 -0.159083 8.00719 0.785185 8.00719 1.8561H7.11688ZM5.70564 0.163779L5.70565 0.163753L6.5617 0.40834L6.5617 0.408366L5.70564 0.163779Z" fill="#4CAF4F" mask="url(#path-1-inside-1_212_1414)"/>
<path d="M1.88184 5.78235L1.85645 5.76868C1.85042 5.77954 1.83437 5.80876 1.81055 5.85168C1.81945 5.85615 1.82791 5.86099 1.83691 5.86438C1.85176 5.83763 1.86642 5.81012 1.88184 5.78235Z" fill="#4CAF4F" stroke="#4CAF4F" stroke-width="0.445155"/>
<path d="M6.46484 7.62793L6.57812 7.43945L6.47949 7.60352L6.46484 7.62793Z" fill="#4CAF4F" stroke="#4CAF4F" stroke-width="0.445155"/>
</svg>
