<svg width="23" height="20" viewBox="0 0 23 20" fill="none" xmlns="http://www.w3.org/2000/svg">
<path d="M22.6279 13.184C22.6279 16.503 19.9373 19.1936 16.6183 19.1936L7.60394 19.1936C6.68199 19.1936 5.9346 18.4462 5.9346 17.5243L5.9346 6.17281C5.9346 4.32891 7.42938 2.83414 9.27327 2.83414L20.9586 2.83414C21.8805 2.83414 22.6279 3.58153 22.6279 4.50348L22.6279 13.184Z" fill="#E8F5E9"/>
<path d="M10.3792 8.39133C10.2988 8.39133 10.2242 8.36923 10.1579 8.33368V8.33462C10.1579 8.4611 10.1087 8.57988 10.0195 8.66884C9.93029 8.75804 9.8116 8.8072 9.68527 8.8072C9.6037 8.8072 9.52811 8.78455 9.46109 8.74805C9.45432 8.86376 9.40807 8.97191 9.32556 9.05451C9.23636 9.14371 9.11767 9.19287 8.99125 9.19287C8.74009 9.19287 8.53613 8.99544 8.52143 8.74798C8.44371 8.78998 8.35585 8.812 8.26523 8.80618C8.01815 8.78998 7.82466 8.5765 7.82466 8.32007V6.19446L7.58262 6.61378C7.49043 6.77416 7.31787 6.87374 7.13207 6.87374C7.04153 6.87374 6.9521 6.84999 6.87289 6.8046C6.77425 6.74742 6.7037 6.65562 6.67436 6.54581C6.64486 6.43592 6.66012 6.321 6.71715 6.22251C6.71723 6.22251 7.50907 4.85126 7.55738 4.76703C7.56312 4.75436 7.57949 4.71763 7.59341 4.68632C7.6067 4.65643 7.61811 4.62576 7.62904 4.59492C7.86784 3.92075 8.45913 3.50197 9.17224 3.50197C10.0983 3.50197 10.8517 4.31891 10.8517 5.32308L10.8517 7.91868C10.8517 8.045 10.8027 8.1637 10.7135 8.25298C10.6243 8.34218 10.5057 8.39134 10.3792 8.39134L10.3792 8.39133ZM9.17225 3.75309C8.5595 3.75309 8.07111 4.09919 7.86573 4.6789C7.8526 4.71572 7.83891 4.75253 7.82294 4.7884C7.77661 4.8923 7.77661 4.8923 7.76356 4.90725L7.76183 4.90575C7.69717 5.02775 7.50509 5.3604 6.93458 6.34819C6.91114 6.3887 6.90492 6.43574 6.91688 6.48073C6.92899 6.52572 6.95802 6.56364 6.99821 6.58684C7.12296 6.6585 7.29382 6.61225 7.36492 6.48836L7.84151 5.66323C7.86999 5.61407 7.92756 5.58992 7.98278 5.60486C8.03768 5.61957 8.07583 5.66936 8.07583 5.72615V8.32014C8.07583 8.44253 8.16818 8.54816 8.28169 8.55564C8.34713 8.5591 8.40817 8.53715 8.45403 8.49137C8.49572 8.44968 8.51868 8.39415 8.51868 8.33476V6.63826C8.51868 6.56889 8.57493 6.51264 8.6443 6.51264C8.71368 6.51264 8.76992 6.56881 8.76992 6.63826L8.76984 8.72038C8.76984 8.84246 8.86919 8.9418 8.99126 8.9418C9.05057 8.9418 9.10626 8.91883 9.14803 8.87714C9.18972 8.83538 9.21269 8.77969 9.21269 8.72038V6.63826C9.21269 6.56888 9.26885 6.51264 9.3383 6.51264C9.40768 6.51264 9.46392 6.56881 9.46392 6.63826L9.46384 8.31525V8.33476C9.46384 8.45676 9.56319 8.5561 9.68534 8.5561C9.74457 8.5561 9.80011 8.53305 9.84211 8.4912C9.8838 8.44959 9.90677 8.39406 9.90677 8.33467V6.63817C9.90677 6.5688 9.96293 6.51256 10.0324 6.51256C10.1018 6.51256 10.158 6.56872 10.158 6.63817L10.1578 7.91873C10.1578 8.04089 10.2572 8.14024 10.3792 8.14024C10.4386 8.14024 10.4941 8.11719 10.5358 8.07558C10.5776 8.03373 10.6005 7.97804 10.6005 7.91873L10.6006 5.32314C10.6006 4.45751 9.95986 3.75311 9.17224 3.75311L9.17225 3.75309Z" fill="#103E13"/>
<path d="M5.44353 10.1954L7.26635 9.10192C7.48612 8.96993 7.7689 9.02601 7.90985 9.22966C7.96129 9.30383 7.98757 9.39028 7.99166 9.4783C8.05962 9.44283 8.13356 9.42356 8.20883 9.42356C8.24737 9.42356 8.28607 9.42836 8.3243 9.43787C8.44677 9.46847 8.54997 9.54501 8.61487 9.65323C8.67984 9.76162 8.6988 9.88865 8.6682 10.011C8.63996 10.1242 8.57113 10.2194 8.47541 10.2848C8.54235 10.3243 8.60008 10.3782 8.64114 10.4468C8.70611 10.5551 8.72507 10.6821 8.69455 10.8046C8.66395 10.9269 8.58742 11.0301 8.47903 11.0951L8.4784 11.0955C8.54416 11.1349 8.60087 11.1883 8.64146 11.2558C8.70651 11.3642 8.72547 11.4913 8.69487 11.6137C8.66419 11.7361 8.58766 11.8393 8.47943 11.9043L6.25374 13.2395C5.83834 13.4886 5.35813 13.5746 4.90175 13.4814C4.44129 13.3873 4.05995 13.1227 3.82807 12.7361C3.46113 12.1246 3.51612 11.402 3.97131 10.8505C3.99216 10.8253 4.01269 10.7997 4.03133 10.7731C4.05107 10.745 4.07412 10.712 4.08198 10.7007C4.1291 10.6165 4.89791 9.23133 4.89783 9.23149C4.97547 9.0914 5.12099 9.01211 5.27106 9.01219C5.34107 9.01219 5.4121 9.02941 5.47762 9.06575C5.55676 9.10996 5.62322 9.17438 5.66971 9.25202C5.76528 9.4113 5.76866 9.61063 5.67868 9.77194L5.44353 10.1954ZM5.45447 9.38115C5.43008 9.34048 5.39657 9.30808 5.35559 9.28511C5.27088 9.23823 5.16422 9.26875 5.11758 9.35315C4.56745 10.3442 4.37992 10.682 4.30755 10.8022L4.3092 10.8026C4.30314 10.8227 4.30314 10.8227 4.23691 10.9173C4.21442 10.9494 4.18995 10.9801 4.16502 11.0104C3.77361 11.4846 3.72816 12.0814 4.04333 12.6069C4.23856 12.9324 4.56123 13.1556 4.95191 13.2353C5.34685 13.3156 5.76311 13.2409 6.1244 13.0241L8.35029 11.6888C8.4011 11.6584 8.43697 11.61 8.45129 11.5527C8.4656 11.4954 8.45672 11.4359 8.4262 11.3851C8.36343 11.2804 8.22711 11.2461 8.1225 11.3091L7.02443 11.9678C6.96497 12.0036 6.88772 11.9844 6.85209 11.9248C6.81638 11.8654 6.83565 11.7882 6.89512 11.7525L7.99326 11.0937L8.3499 10.8798C8.40071 10.8492 8.43666 10.8009 8.45098 10.7437C8.46529 10.6863 8.4564 10.6267 8.42588 10.576C8.36304 10.4713 8.22672 10.4372 8.12219 10.5L6.6674 11.3727C6.60778 11.4085 6.53077 11.3892 6.49506 11.3297C6.45935 11.2702 6.4787 11.1931 6.53809 11.1574L8.32355 10.0863C8.37436 10.0558 8.41023 10.0075 8.42455 9.95011C8.43886 9.89285 8.42998 9.83331 8.39954 9.78249C8.3691 9.73176 8.32072 9.69589 8.26338 9.68158C8.20572 9.66726 8.14641 9.67615 8.09576 9.70651L7.76524 9.90481C7.76516 9.90481 7.76516 9.90489 7.76508 9.90489H7.765L6.3103 10.7776C6.25068 10.8135 6.17359 10.7941 6.13796 10.7346C6.10225 10.6751 6.1216 10.5979 6.18099 10.5622L7.63577 9.68952C7.68658 9.659 7.72253 9.61063 7.73684 9.55344C7.75257 9.49067 7.74062 9.42649 7.70333 9.37269C7.63868 9.27916 7.5004 9.2543 7.39555 9.31731L5.17127 10.6517C5.12258 10.6808 5.0602 10.6737 5.01938 10.6343C4.97848 10.5948 4.96927 10.5327 4.9968 10.4831L5.45932 9.6498C5.50573 9.5665 5.50392 9.46362 5.45444 9.38118L5.45447 9.38115Z" fill="#103E13"/>
<path d="M14.1537 12.7359C13.9219 13.1225 13.5406 13.3872 13.0801 13.4812C12.6236 13.5743 12.1436 13.4885 11.7281 13.2394L9.50222 11.9041C9.3939 11.8391 9.31729 11.7359 9.28661 11.6133C9.25617 11.491 9.27521 11.364 9.3401 11.2557C9.38061 11.1881 9.4374 11.1348 9.50324 11.0954L9.50261 11.095C9.3943 11.03 9.31768 10.9268 9.28717 10.8044C9.25649 10.682 9.27553 10.5549 9.3405 10.4465C9.38234 10.3769 9.43969 10.3225 9.50513 10.2839C9.41011 10.2185 9.34168 10.1235 9.31352 10.0109C9.28284 9.88843 9.30188 9.76139 9.36685 9.65316C9.43174 9.54484 9.53502 9.46831 9.65742 9.43772C9.69565 9.42812 9.73443 9.4234 9.77281 9.4234C9.84817 9.42348 9.92211 9.44259 9.99006 9.47815C9.99423 9.39013 10.0204 9.30368 10.0719 9.2295C10.2129 9.02602 10.4954 8.9697 10.7155 9.10176L12.5383 10.1951L12.3033 9.77192C12.2132 9.61036 12.2165 9.41104 12.3121 9.25168C12.3586 9.17412 12.4252 9.1097 12.5047 9.0651C12.5701 9.02892 12.6409 9.01177 12.7107 9.01177C12.8607 9.01185 13.0064 9.09098 13.0839 9.23108C13.3542 9.71806 13.8642 10.6365 13.9001 10.7006C13.9077 10.7117 13.9308 10.7447 13.9505 10.7728C13.9693 10.7995 13.9896 10.8249 14.0106 10.8503C14.4657 11.402 14.5206 12.1244 14.1537 12.7359L14.1537 12.7359ZM13.8168 11.0103C13.7918 10.9801 13.7673 10.9491 13.7449 10.9173C13.677 10.8209 13.6752 10.8183 13.6701 10.7931C13.5907 10.6617 13.3969 10.3127 12.8641 9.35293C12.8174 9.26868 12.7112 9.23793 12.6266 9.28465C12.585 9.30793 12.5516 9.34042 12.5272 9.38109C12.4778 9.46344 12.4759 9.56633 12.5226 9.64987L12.9849 10.4829C13.0125 10.5327 13.0033 10.5946 12.9625 10.6341C12.9218 10.6737 12.8595 10.6806 12.8105 10.6515L10.5863 9.31714C10.4814 9.25429 10.3432 9.27891 10.2784 9.37251C10.2411 9.42631 10.2292 9.4905 10.2448 9.55319C10.2591 9.61046 10.2951 9.65875 10.346 9.68927C10.3461 9.68935 10.3462 9.68951 10.3464 9.68958L11.8007 10.5621C11.8601 10.5978 11.8794 10.6749 11.8437 10.7344C11.808 10.7938 11.731 10.8132 11.6714 10.7774L9.88589 9.70634C9.83524 9.67598 9.77561 9.66702 9.71835 9.68141C9.66093 9.69572 9.61263 9.73159 9.58219 9.78248C9.55167 9.83322 9.54286 9.89276 9.55702 9.95003C9.57134 10.0073 9.60729 10.0557 9.6581 10.0862L10.0055 10.2946L11.4435 11.1573C11.5029 11.193 11.5222 11.2701 11.4865 11.3296C11.4508 11.389 11.3738 11.4084 11.3142 11.3727L9.85955 10.4999C9.75493 10.437 9.61869 10.4711 9.55577 10.5759C9.52525 10.6267 9.51644 10.6863 9.5306 10.7435C9.54491 10.8008 9.58086 10.8491 9.63175 10.8797L9.98839 11.0936L11.0864 11.7524C11.1458 11.7881 11.1651 11.8652 11.1294 11.9248C11.0937 11.9841 11.0167 12.0036 10.9571 11.9678L9.85907 11.309C9.80842 11.2786 9.74903 11.2697 9.69145 11.2841C9.63419 11.2984 9.58574 11.3343 9.5553 11.385C9.52486 11.4358 9.51597 11.4954 9.53012 11.5526C9.54444 11.6099 9.58039 11.6582 9.63128 11.6888L11.8572 13.0241C12.2184 13.2408 12.6349 13.3158 13.0297 13.2353C13.4203 13.1555 13.7429 12.9323 13.9382 12.6069C14.2537 12.0813 14.2083 11.4844 13.8169 11.0103L13.8168 11.0103Z" fill="#103E13"/>
</svg>
