<svg width="11" height="12" viewBox="0 0 11 12" fill="none" xmlns="http://www.w3.org/2000/svg">
<path opacity="0.1" fill-rule="evenodd" clip-rule="evenodd" d="M0.13916 5.72712C0.13916 2.77689 2.53079 0.385254 5.48102 0.385254C8.43126 0.385254 10.8229 2.77689 10.8229 5.72712C10.8229 8.67735 8.43126 11.069 5.48102 11.069C2.53079 11.069 0.13916 8.67735 0.13916 5.72712Z" fill="white"/>
<path fill-rule="evenodd" clip-rule="evenodd" d="M5.321 4.72715L5.33221 4.91199L5.14539 4.88935C4.46534 4.80259 3.87123 4.50836 3.3668 4.01419L3.12019 3.76899L3.05667 3.95006C2.92215 4.35369 3.00809 4.77996 3.28833 5.06665C3.43779 5.22509 3.40417 5.24772 3.14635 5.15341C3.05667 5.12323 2.9782 5.1006 2.97073 5.11192C2.94457 5.13832 3.03425 5.4816 3.10524 5.6174C3.20239 5.80601 3.40043 5.99085 3.61715 6.10025L3.80024 6.18701L3.58352 6.19078C3.37427 6.19078 3.3668 6.19456 3.38922 6.27377C3.46395 6.51897 3.75914 6.77926 4.08795 6.89242L4.31961 6.97164L4.11784 7.09235C3.81892 7.26588 3.46769 7.36396 3.11645 7.3715C2.94831 7.37527 2.81006 7.39036 2.81006 7.40168C2.81006 7.4394 3.26591 7.65065 3.53121 7.73364C4.32709 7.97883 5.27243 7.87321 5.98237 7.45449C6.4868 7.15648 6.99123 6.56424 7.22663 5.99085C7.35367 5.6853 7.48071 5.12701 7.48071 4.85918C7.48071 4.68565 7.49192 4.66302 7.70117 4.45555C7.82447 4.33483 7.94031 4.2028 7.96273 4.16508C8.00009 4.09341 7.99635 4.09341 7.80579 4.15754C7.48819 4.2707 7.44335 4.25562 7.60028 4.08586C7.71611 3.96515 7.85437 3.74636 7.85437 3.68223C7.85437 3.67092 7.79832 3.68978 7.7348 3.72373C7.66754 3.76145 7.51808 3.81803 7.40598 3.85198L7.20421 3.91611L7.02112 3.79163C6.92024 3.72373 6.77825 3.64828 6.70352 3.62565C6.51295 3.57284 6.2215 3.58038 6.04962 3.64074C5.58256 3.81049 5.28737 4.24807 5.321 4.72715Z" fill="white"/>
</svg>
