<svg width="11" height="12" viewBox="0 0 11 12" fill="none" xmlns="http://www.w3.org/2000/svg">
<path opacity="0.1" fill-rule="evenodd" clip-rule="evenodd" d="M0.164551 5.72712C0.164551 2.77689 2.55619 0.385254 5.50642 0.385254C8.45665 0.385254 10.8483 2.77689 10.8483 5.72712C10.8483 8.67735 8.45665 11.069 5.50642 11.069C2.55619 11.069 0.164551 8.67735 0.164551 5.72712Z" fill="white"/>
<path fill-rule="evenodd" clip-rule="evenodd" d="M7.73284 3.8907C7.97802 3.95798 8.1711 4.15621 8.23663 4.40795C8.3557 4.86419 8.3557 5.81615 8.3557 5.81615C8.3557 5.81615 8.3557 6.76807 8.23663 7.22435C8.1711 7.47608 7.97802 7.67432 7.73284 7.74163C7.28853 7.86386 5.50671 7.86386 5.50671 7.86386C5.50671 7.86386 3.72489 7.86386 3.28054 7.74163C3.03537 7.67432 2.84228 7.47608 2.77676 7.22435C2.65771 6.76807 2.65771 5.81615 2.65771 5.81615C2.65771 5.81615 2.65771 4.86419 2.77676 4.40795C2.84228 4.15621 3.03537 3.95798 3.28054 3.8907C3.72489 3.76843 5.50671 3.76843 5.50671 3.76843C5.50671 3.76843 7.28853 3.76843 7.73284 3.8907ZM4.97253 5.01485V6.79547L6.39703 5.90519L4.97253 5.01485Z" fill="white"/>
</svg>
